<svg width="current" height="current" viewBox="0 0 80 80" fill="none" xmlns="http://www.w3.org/2000/svg">
<circle cx="40" cy="40" r="40" fill="#FAEFEF"/>
<mask id="mask0_390_3916" style="mask-type:alpha" maskUnits="userSpaceOnUse" x="16" y="16" width="48" height="48">
<rect x="16" y="16" width="48" height="48" fill="#D9D9D9"/>
</mask>
<g mask="url(#mask0_390_3916)">
<path d="M52.6155 43.5V37.1345H46.25V34.8655H52.6155V28.5H54.8845V34.8655H61.25V37.1345H54.8845V43.5H52.6155ZM34 39.354C32.075 39.354 30.488 38.7295 29.239 37.4805C27.99 36.2312 27.3655 34.6408 27.3655 32.7095C27.3655 30.7782 27.99 29.1912 29.239 27.9485C30.488 26.7058 32.075 26.0845 34 26.0845C35.925 26.0845 37.512 26.7058 38.761 27.9485C40.01 29.1912 40.6345 30.7782 40.6345 32.7095C40.6345 34.6408 40.01 36.2312 38.761 37.4805C37.512 38.7295 35.925 39.354 34 39.354ZM19 54.6155V50.819C19 49.819 19.266 48.9018 19.798 48.0675C20.33 47.2328 21.0883 46.6013 22.073 46.173C24.368 45.1627 26.4522 44.439 28.3255 44.002C30.1988 43.5647 32.0872 43.346 33.9905 43.346C35.8942 43.346 37.7807 43.5647 39.65 44.002C41.5193 44.439 43.6013 45.1627 45.896 46.173C46.8807 46.6347 47.6442 47.2745 48.1865 48.0925C48.7288 48.9102 49 49.819 49 50.819V54.6155H19ZM21.2695 52.346H46.7305V50.819C46.7305 50.2987 46.571 49.8 46.252 49.323C45.9327 48.846 45.4973 48.4717 44.946 48.2C42.8103 47.2027 40.9213 46.5225 39.279 46.1595C37.637 45.7968 35.8773 45.6155 34 45.6155C32.1227 45.6155 30.3547 45.7968 28.696 46.1595C27.037 46.5225 25.146 47.2027 23.023 48.2C22.459 48.4717 22.0257 48.846 21.723 49.323C21.4207 49.8 21.2695 50.2987 21.2695 50.819V52.346ZM34 37.0845C35.2487 37.0845 36.2883 36.6692 37.119 35.8385C37.95 35.0078 38.3655 33.9682 38.3655 32.7195C38.3655 31.4705 37.95 30.4307 37.119 29.6C36.2883 28.7693 35.2487 28.354 34 28.354C32.7513 28.354 31.7117 28.7693 30.881 29.6C30.05 30.4307 29.6345 31.4705 29.6345 32.7195C29.6345 33.9682 30.05 35.0078 30.881 35.8385C31.7117 36.6692 32.7513 37.0845 34 37.0845Z" fill="#F87171"/>
</g>
</svg>
