<svg width="60" height="60" viewBox="0 0 60 60" fill="none" xmlns="http://www.w3.org/2000/svg">
<path d="M30 50C39.4275 50 44.1425 50 47.07 47.07C50 44.1425 50 39.4275 50 30M30 50C20.5725 50 15.8575 50 12.93 47.07C10.0025 44.14 10 39.4275 10 30M30 50V55M10 30C10 20.5725 10 15.8575 12.93 12.93C15.86 10.0025 20.5725 10 30 10M10 30H5M30 10C39.4275 10 44.1425 10 47.07 12.93C49.9975 15.86 50 20.5725 50 30M30 10V5M50 30H55M20 5V10M40 5V10M20 50V55M40 50V55M55 40H50M10 20H5M10 40H5M55 20H50" stroke="#5A4A42" stroke-width="1.5" stroke-linecap="round" stroke-linejoin="round"/>
<path d="M28.7001 19.655C28.7979 19.3889 28.975 19.1592 29.2074 18.997C29.4399 18.8347 29.7166 18.7477 30.0001 18.7477C30.2836 18.7477 30.5602 18.8347 30.7927 18.997C31.0252 19.1592 31.2023 19.3889 31.3001 19.655L33.3001 25.0625C33.5801 25.82 34.1801 26.42 34.9376 26.7L40.3451 28.7C40.6112 28.7978 40.8409 28.9749 41.0031 29.2074C41.1653 29.4398 41.2523 29.7165 41.2523 30C41.2523 30.2835 41.1653 30.5602 41.0031 30.7927C40.8409 31.0251 40.6112 31.2022 40.3451 31.3L34.9376 33.3C34.562 33.4375 34.2209 33.6552 33.9381 33.938C33.6552 34.2208 33.4375 34.5619 33.3001 34.9375L31.3001 40.345C31.2023 40.6111 31.0252 40.8408 30.7927 41.003C30.5602 41.1653 30.2836 41.2523 30.0001 41.2523C29.7166 41.2523 29.4399 41.1653 29.2074 41.003C28.975 40.8408 28.7979 40.6111 28.7001 40.345L26.7001 34.9375C26.5626 34.5619 26.3449 34.2208 26.0621 33.938C25.7793 33.6552 25.4382 33.4375 25.0626 33.3L19.6551 31.3C19.389 31.2022 19.1593 31.0251 18.997 30.7927C18.8348 30.5602 18.7478 30.2835 18.7478 30C18.7478 29.7165 18.8348 29.4398 18.997 29.2074C19.1593 28.9749 19.389 28.7978 19.6551 28.7L25.0626 26.7C25.4373 26.5611 25.7777 26.3429 26.0603 26.0602C26.3429 25.7776 26.5612 25.4373 26.7001 25.0625L28.7001 19.655Z" stroke="#5A4A42" stroke-width="1.5"/>
</svg>
