<svg width="23" height="23" viewBox="0 0 23 23" fill="none" xmlns="http://www.w3.org/2000/svg">
<mask id="mask0_420_3237" style="mask-type:alpha" maskUnits="userSpaceOnUse" x="0" y="0" width="23" height="23">
<rect width="23" height="23" fill="#D9D9D9"/>
</mask>
<g mask="url(#mask0_420_3237)">
<path d="M7.85091 12.1267H15.1491V10.6892H7.85091V12.1267ZM7.85091 14.8912H15.1491V13.4537H7.85091V14.8912ZM7.85091 17.6555H12.2741V16.218H7.85091V17.6555ZM6.04493 20.6043C5.56081 20.6043 5.15104 20.4366 4.81563 20.1012C4.48021 19.7658 4.3125 19.356 4.3125 18.8719V4.12842C4.3125 3.64431 4.48021 3.23454 4.81563 2.89912C5.15104 2.5637 5.56081 2.396 6.04493 2.396H13.6562L18.6875 7.42725V18.8719C18.6875 19.356 18.5198 19.7658 18.1844 20.1012C17.849 20.4366 17.4392 20.6043 16.9551 20.6043H6.04493ZM12.9375 8.146V3.8335H6.04493C5.97114 3.8335 5.90357 3.86424 5.84224 3.92574C5.78075 3.98707 5.75 4.05463 5.75 4.12842V18.8719C5.75 18.9457 5.78075 19.0133 5.84224 19.0746C5.90357 19.1361 5.97114 19.1668 6.04493 19.1668H16.9551C17.0289 19.1668 17.0964 19.1361 17.1578 19.0746C17.2193 19.0133 17.25 18.9457 17.25 18.8719V8.146H12.9375Z" fill="#5A4A42"/>
</g>
</svg>
