<svg width="62" height="62" viewBox="0 0 62 62" fill="none" xmlns="http://www.w3.org/2000/svg">
<path d="M0 15C0 6.71573 6.71573 0 15 0H47C55.2843 0 62 6.71573 62 15V47C62 55.2843 55.2843 62 47 62H15C6.71573 62 0 55.2843 0 47V15Z" fill="#EAEAF6" fill-opacity="0.3"/>
<mask id="mask0_390_3604" style="mask-type:alpha" maskUnits="userSpaceOnUse" x="11" y="11" width="40" height="40">
<rect x="11" y="11" width="40" height="40" fill="#D9D9D9"/>
</mask>
<g mask="url(#mask0_390_3604)">
<path d="M34.2371 27.0404V25.2542C35.1432 24.8333 36.0914 24.5176 37.0817 24.3071C38.0722 24.0968 39.1006 23.9917 40.1667 23.9917C40.8356 23.9917 41.4851 24.0392 42.1154 24.1342C42.7457 24.2292 43.3782 24.3547 44.0129 24.5108V26.1946C43.389 25.9765 42.7688 25.8183 42.1521 25.72C41.5357 25.6217 40.8739 25.5725 40.1667 25.5725C39.1006 25.5725 38.0679 25.6992 37.0688 25.9525C36.0699 26.2056 35.126 26.5682 34.2371 27.0404ZM34.2371 36.175V34.3396C35.1218 33.9246 36.0674 33.6132 37.0738 33.4054C38.0801 33.1979 39.1111 33.0942 40.1667 33.0942C40.8356 33.0942 41.4851 33.1417 42.1154 33.2367C42.7457 33.3317 43.3782 33.4572 44.0129 33.6133V35.2971C43.389 35.079 42.7688 34.9208 42.1521 34.8225C41.5357 34.7242 40.8739 34.675 40.1667 34.675C39.1006 34.675 38.0679 34.8028 37.0688 35.0583C36.0699 35.3136 35.126 35.6858 34.2371 36.175ZM34.2371 31.6238V29.8054C35.1432 29.3846 36.0914 29.0689 37.0817 28.8583C38.0722 28.6481 39.1006 28.5429 40.1667 28.5429C40.8356 28.5429 41.4851 28.5904 42.1154 28.6854C42.7457 28.7804 43.3782 28.906 44.0129 29.0621V30.7458C43.389 30.5278 42.7688 30.3696 42.1521 30.2713C41.5357 30.1729 40.8739 30.1238 40.1667 30.1238C39.1006 30.1238 38.0679 30.2557 37.0688 30.5196C36.0699 30.7835 35.126 31.1515 34.2371 31.6238ZM32.0917 40.205C33.4536 39.4908 34.8108 38.9622 36.1633 38.6192C37.5161 38.2761 38.9332 38.1046 40.4146 38.1046C41.4446 38.1046 42.4382 38.1772 43.3954 38.3225C44.3526 38.4678 45.1851 38.6601 45.8929 38.8996C46.0213 38.9529 46.1389 38.9449 46.2458 38.8754C46.3525 38.806 46.4058 38.6965 46.4058 38.5471V22.1133C46.4058 22.0172 46.3792 21.9317 46.3258 21.8567C46.2725 21.782 46.1817 21.7179 46.0533 21.6646C45.1253 21.2735 44.2126 20.992 43.3154 20.82C42.4179 20.6481 41.451 20.5621 40.4146 20.5621C38.9332 20.5621 37.4799 20.782 36.0546 21.2217C34.6293 21.6614 33.3083 22.304 32.0917 23.1496V40.205ZM31.0396 43.3075C29.6507 42.3161 28.1521 41.5529 26.5437 41.0179C24.9354 40.4832 23.2826 40.2158 21.5854 40.2158C20.6451 40.2158 19.7217 40.3153 18.815 40.5142C17.9083 40.7133 17.0114 40.985 16.1242 41.3292C15.4983 41.6097 14.9044 41.555 14.3425 41.165C13.7808 40.7753 13.5 40.2295 13.5 39.5275V21.8204C13.5 21.4088 13.6028 21.0279 13.8083 20.6779C14.0139 20.3279 14.3114 20.0678 14.7008 19.8975C15.7819 19.4067 16.9022 19.0457 18.0617 18.8146C19.2211 18.5835 20.3957 18.4679 21.5854 18.4679C23.2779 18.4679 24.9242 18.7028 26.5242 19.1725C28.1242 19.6422 29.6311 20.3454 31.045 21.2821C32.4403 20.3454 33.9321 19.6422 35.5204 19.1725C37.1087 18.7028 38.7401 18.4679 40.4146 18.4679C41.6101 18.4679 42.7833 18.5853 43.9342 18.82C45.0847 19.0547 46.2007 19.4139 47.2821 19.8975C47.6715 20.0664 47.9719 20.3261 48.1833 20.6767C48.3944 21.0275 48.5 21.4088 48.5 21.8204V39.5275C48.5 40.25 48.2004 40.8042 47.6012 41.19C47.0024 41.5761 46.3896 41.6118 45.7629 41.2971C44.9046 40.9524 44.0276 40.686 43.1321 40.4979C42.2362 40.3099 41.3304 40.2158 40.4146 40.2158C38.7154 40.2158 37.0753 40.4861 35.4942 41.0267C33.9133 41.5672 32.4285 42.3275 31.0396 43.3075Z" fill="white"/>
</g>
</svg>
