<svg width="22" height="22" viewBox="0 0 22 22" fill="none" xmlns="http://www.w3.org/2000/svg">
<mask id="mask0_390_3386" style="mask-type:alpha" maskUnits="userSpaceOnUse" x="0" y="0" width="22" height="22">
<rect width="21.43" height="21.43" fill="#D9D9D9"/>
</mask>
<g mask="url(#mask0_390_3386)">
<path d="M10.7152 18.6997C10.347 18.6997 10.0277 18.6027 9.7573 18.4088C9.48689 18.2151 9.31888 17.9586 9.25325 17.6396H8.84474C8.5468 17.6396 8.28533 17.5271 8.06031 17.3021C7.8353 17.0772 7.72279 16.8158 7.72279 16.5179V13.5793C6.76767 13.0011 6.02312 12.2429 5.48916 11.3046C4.95504 10.3662 4.68799 9.35123 4.68799 8.25949C4.68799 6.57902 5.2724 5.15437 6.44123 3.98554C7.61006 2.81671 9.03471 2.2323 10.7152 2.2323C12.3956 2.2323 13.8203 2.81671 14.9891 3.98554C16.1579 5.15437 16.7424 6.57902 16.7424 8.25949C16.7424 9.35733 16.4757 10.374 15.9423 11.3095C15.4089 12.2449 14.664 13.0015 13.7076 13.5793V16.5179C13.7076 16.8158 13.5951 17.0772 13.37 17.3021C13.145 17.5271 12.8835 17.6396 12.5856 17.6396H12.1771C12.1115 17.9586 11.9435 18.2151 11.6731 18.4088C11.4026 18.6027 11.0834 18.6997 10.7152 18.6997ZM8.84474 16.5179H12.5856V15.595H8.84474V16.5179ZM8.84474 14.8052H12.5856V13.9157H8.84474V14.8052ZM8.6512 12.7939H10.2584V9.87701L8.30318 7.92174L8.93403 7.29112L10.7152 9.07807L12.4963 7.29112L13.1272 7.92174L11.1719 9.87701V12.7939H12.7792C13.6271 12.3948 14.3127 11.7887 14.8358 10.9757C15.3589 10.1627 15.6204 9.25732 15.6204 8.25949C15.6204 6.88722 15.1459 5.72666 14.1969 4.77778C13.248 3.82876 12.0874 3.35425 10.7152 3.35425C9.34291 3.35425 8.18234 3.82876 7.23347 4.77778C6.28445 5.72666 5.80994 6.88722 5.80994 8.25949C5.80994 9.25732 6.07149 10.1627 6.59459 10.9757C7.11769 11.7887 7.80323 12.3948 8.6512 12.7939Z" fill="#FF9800"/>
</g>
</svg>
