<svg width="20" height="20" viewBox="0 0 20 20" fill="none" xmlns="http://www.w3.org/2000/svg">
<path d="M16.25 3.33341H13.75V2.08341C13.75 1.97291 13.7061 1.86693 13.6279 1.78879C13.5498 1.71065 13.4438 1.66675 13.3333 1.66675C13.2228 1.66675 13.1168 1.71065 13.0387 1.78879C12.9605 1.86693 12.9166 1.97291 12.9166 2.08341V3.33341H7.08329V2.08341C7.08329 1.97291 7.03939 1.86693 6.96125 1.78879C6.88311 1.71065 6.77713 1.66675 6.66663 1.66675C6.55612 1.66675 6.45014 1.71065 6.372 1.78879C6.29386 1.86693 6.24996 1.97291 6.24996 2.08341V3.33341H3.74996C3.19763 3.33408 2.66811 3.55378 2.27755 3.94434C1.88699 4.3349 1.66729 4.86442 1.66663 5.41675V16.2501C1.66729 16.8024 1.88699 17.3319 2.27755 17.7225C2.66811 18.113 3.19763 18.3328 3.74996 18.3334H16.25C16.8025 18.3334 17.3324 18.1139 17.7231 17.7232C18.1138 17.3325 18.3333 16.8026 18.3333 16.2501V5.41675C18.3333 4.86421 18.1138 4.33431 17.7231 3.94361C17.3324 3.55291 16.8025 3.33341 16.25 3.33341ZM17.5 16.2501C17.5 16.5816 17.3683 16.8995 17.1338 17.134C16.8994 17.3684 16.5815 17.5001 16.25 17.5001H3.74996C3.41844 17.5001 3.1005 17.3684 2.86608 17.134C2.63166 16.8995 2.49996 16.5816 2.49996 16.2501V9.16675H17.5V16.2501ZM17.5 8.33341H2.49996V5.41675C2.49996 4.72675 3.05829 4.16675 3.74996 4.16675H6.24996V5.41675C6.24996 5.52725 6.29386 5.63324 6.372 5.71138C6.45014 5.78952 6.55612 5.83341 6.66663 5.83341C6.77713 5.83341 6.88311 5.78952 6.96125 5.71138C7.03939 5.63324 7.08329 5.52725 7.08329 5.41675V4.16675H12.9166V5.41675C12.9166 5.52725 12.9605 5.63324 13.0387 5.71138C13.1168 5.78952 13.2228 5.83341 13.3333 5.83341C13.4438 5.83341 13.5498 5.78952 13.6279 5.71138C13.7061 5.63324 13.75 5.52725 13.75 5.41675V4.16675H16.25C16.5815 4.16675 16.8994 4.29844 17.1338 4.53286C17.3683 4.76728 17.5 5.08523 17.5 5.41675V8.33341Z" fill="#5A4A42"/>
</svg>
