<svg width="35" height="35" viewBox="0 0 35 35" fill="none" xmlns="http://www.w3.org/2000/svg">
<mask id="mask0_390_2567" style="mask-type:alpha" maskUnits="userSpaceOnUse" x="0" y="0" width="35" height="35">
<rect width="35" height="35" fill="#D9D9D9"/>
</mask>
<g mask="url(#mask0_390_2567)">
<path d="M12.1411 24.148L17.4994 18.7893L22.8577 24.148L24.148 22.8577L18.7893 17.4994L24.148 12.1412L22.8577 10.8509L17.4994 16.2095L12.1411 10.8509L10.8509 12.1412L16.2095 17.4994L10.8509 22.8577L12.1411 24.148ZM17.502 31.3536C15.5957 31.3536 13.8011 30.99 12.1182 30.2628C10.4353 29.5355 8.96611 28.5446 7.71073 27.29C6.45559 26.0351 5.46417 24.5665 4.73646 22.8843C4.009 21.2021 3.64526 19.408 3.64526 17.502C3.64526 15.5857 4.00887 13.7846 4.7361 12.0985C5.46332 10.4124 6.45426 8.94582 7.70891 7.6987C8.96381 6.45158 10.4323 5.46417 12.1145 4.73646C13.7967 4.009 15.5908 3.64526 17.4969 3.64526C19.4131 3.64526 21.2143 4.00887 22.9004 4.7361C24.5864 5.46332 26.053 6.45025 27.3002 7.69688C28.5473 8.94351 29.5347 10.4095 30.2624 12.0948C30.9899 13.7802 31.3536 15.5809 31.3536 17.4969C31.3536 19.4032 30.99 21.1978 30.2628 22.8807C29.5355 24.5636 28.5486 26.0327 27.302 27.2881C26.0554 28.5433 24.5894 29.5347 22.904 30.2624C21.2187 30.9899 19.418 31.3536 17.502 31.3536ZM17.4994 29.5212C20.8485 29.5212 23.6894 28.3523 26.0223 26.0146C28.3549 23.6769 29.5212 20.8385 29.5212 17.4994C29.5212 14.1504 28.3549 11.3094 26.0223 8.97657C23.6894 6.64396 20.8485 5.47766 17.4994 5.47766C14.1603 5.47766 11.3219 6.64396 8.98422 8.97657C6.64651 11.3094 5.47766 14.1504 5.47766 17.4994C5.47766 20.8385 6.64651 23.6769 8.98422 26.0146C11.3219 28.3523 14.1603 29.5212 17.4994 29.5212Z" fill="#B03A3A"/>
</g>
</svg>
