<svg width="24" height="24" viewBox="0 0 24 24" fill="none" xmlns="http://www.w3.org/2000/svg">
<path d="M8.697 3.25H15.303C15.483 3.25 15.638 3.25 15.778 3.267C16.2797 3.32949 16.7457 3.55912 17.101 3.91888C17.4562 4.27864 17.6799 4.74755 17.736 5.25H18.542C18.754 5.248 19.219 5.244 19.603 5.501C20.1 5.832 20.25 6.401 20.25 7C20.25 9.726 18.797 11.546 16.942 12.557C15.907 14.441 13.995 15.75 12 15.75C10.481 15.75 9.04 14.928 8.003 13.791C7.65843 13.4151 7.35597 13.0026 7.101 12.561C5.247 11.555 3.75 9.737 3.75 7C3.75 6.4 3.9 5.832 4.396 5.501C4.781 5.244 5.246 5.248 5.458 5.25H6.264L6.267 5.222C6.32883 4.72504 6.55468 4.26291 6.9088 3.9088C7.26291 3.55468 7.72504 3.32883 8.222 3.267C8.362 3.25 8.517 3.25 8.697 3.25ZM7.75 6V6.003L7.74 9.5V9.501C7.74 10.222 7.946 10.959 8.303 11.634L8.317 11.659C8.532 12.061 8.801 12.439 9.112 12.779C9.954 13.703 11.02 14.25 12.001 14.25C13.423 14.25 14.922 13.222 15.701 11.706C16.0549 11.0245 16.2401 10.2679 16.241 9.5L16.239 9.498L16.251 5.737C16.251 5.495 16.249 5.442 16.245 5.407C16.2243 5.24157 16.149 5.08775 16.0311 4.96986C15.9132 4.85197 15.7594 4.77672 15.594 4.756C15.4841 4.74946 15.374 4.74746 15.264 4.75H8.737C8.494 4.75 8.442 4.751 8.407 4.756C8.24157 4.77672 8.08775 4.85197 7.96986 4.96986C7.85196 5.08775 7.77672 5.24157 7.756 5.407C7.74946 5.51687 7.74746 5.62696 7.75 5.737V6ZM17.748 6.75L17.739 9.5V9.501M17.716 10.04C18.354 9.272 18.751 8.27 18.751 7C18.751 6.882 18.741 6.804 18.732 6.755C18.6551 6.75037 18.578 6.7487 18.501 6.75H17.748M6.26 9.982C6.24491 9.82178 6.23757 9.66093 6.238 9.5V9.498L6.247 6.75H5.5C5.391 6.75 5.322 6.75 5.269 6.755C5.25495 6.83588 5.24858 6.91792 5.25 7C5.25 8.237 5.638 9.22 6.26 9.982ZM12 16.25C12.1989 16.25 12.3897 16.329 12.5303 16.4697C12.671 16.6103 12.75 16.8011 12.75 17V19.25H16C16.1989 19.25 16.3897 19.329 16.5303 19.4697C16.671 19.6103 16.75 19.8011 16.75 20C16.75 20.1989 16.671 20.3897 16.5303 20.5303C16.3897 20.671 16.1989 20.75 16 20.75H8C7.80109 20.75 7.61032 20.671 7.46967 20.5303C7.32902 20.3897 7.25 20.1989 7.25 20C7.25 19.8011 7.32902 19.6103 7.46967 19.4697C7.61032 19.329 7.80109 19.25 8 19.25H11.25V17C11.25 16.8011 11.329 16.6103 11.4697 16.4697C11.6103 16.329 11.8011 16.25 12 16.25Z" fill="#5A4A42"/>
<path d="M11.77 6.5551C11.7892 6.51 11.8212 6.47155 11.8621 6.44452C11.903 6.41749 11.951 6.40308 12 6.40308C12.049 6.40308 12.0969 6.41749 12.1378 6.44452C12.1787 6.47155 12.2108 6.51 12.23 6.5551L12.735 7.7671C12.7526 7.8094 12.7815 7.84604 12.8185 7.87302C12.8556 7.9 12.8993 7.91629 12.945 7.9201L14.254 8.0251C14.3032 8.029 14.3502 8.04739 14.389 8.07797C14.4278 8.10854 14.4567 8.14992 14.472 8.19689C14.4873 8.24385 14.4883 8.29429 14.475 8.34185C14.4616 8.38941 14.4345 8.43194 14.397 8.4641L13.4 9.3181C13.3651 9.34808 13.3392 9.3871 13.3251 9.43085C13.311 9.4746 13.3092 9.5214 13.32 9.5661L13.624 10.8421C13.6357 10.8903 13.6329 10.9408 13.6158 10.9873C13.5987 11.0339 13.5682 11.0743 13.5281 11.1034C13.488 11.1326 13.4402 11.1491 13.3907 11.151C13.3412 11.1529 13.2922 11.1401 13.25 11.1141L12.13 10.4301C12.0908 10.4063 12.0458 10.3936 12 10.3936C11.9541 10.3936 11.9092 10.4063 11.87 10.4301L10.75 11.1141C10.7078 11.1401 10.6588 11.1529 10.6093 11.151C10.5598 11.1491 10.5119 11.1326 10.4719 11.1034C10.4318 11.0743 10.4013 11.0339 10.3842 10.9873C10.3671 10.9408 10.3643 10.8903 10.376 10.8421L10.681 9.5661C10.6917 9.5214 10.69 9.4746 10.6759 9.43085C10.6617 9.3871 10.6358 9.34808 10.601 9.3181L9.60299 8.4641C9.56515 8.43202 9.53771 8.38941 9.52416 8.34169C9.51061 8.29398 9.51156 8.2433 9.52689 8.19613C9.54222 8.14895 9.57124 8.1074 9.61026 8.07677C9.64927 8.04614 9.69652 8.0278 9.74599 8.0241L11.054 7.9201C11.0998 7.91647 11.1438 7.90026 11.181 7.87327C11.2182 7.84628 11.2473 7.80954 11.265 7.7671L11.77 6.5551Z" fill="#5A4A42"/>
</svg>
