<svg width="25" height="25" viewBox="0 0 25 25" fill="none" xmlns="http://www.w3.org/2000/svg">
<mask id="mask0_390_3613" style="mask-type:alpha" maskUnits="userSpaceOnUse" x="0" y="0" width="25" height="25">
<rect width="25" height="25" fill="#D9D9D9"/>
</mask>
<g mask="url(#mask0_390_3613)">
<path d="M12.4993 15.7756L16.8163 11.4587L15.7025 10.3709L12.4993 13.574L9.29622 10.3709L8.18242 11.4587L12.4993 15.7756ZM12.5012 22.3962C11.1324 22.3962 9.84588 22.1364 8.64154 21.617C7.4372 21.0975 6.38963 20.3926 5.49883 19.5021C4.60803 18.6117 3.90273 17.5646 3.38294 16.3607C2.86332 15.1569 2.60352 13.8707 2.60352 12.5021C2.60352 11.1334 2.86324 9.84685 3.38268 8.64251C3.90213 7.43817 4.60707 6.3906 5.49753 5.4998C6.38798 4.60901 7.43511 3.90371 8.63893 3.38392C9.84275 2.8643 11.1289 2.60449 12.4975 2.60449C13.8663 2.60449 15.1528 2.86421 16.3572 3.38366C17.5615 3.9031 18.6091 4.60805 19.4999 5.4985C20.3907 6.38895 21.096 7.43609 21.6158 8.63991C22.1354 9.84373 22.3952 11.1299 22.3952 12.4985C22.3952 13.8673 22.1355 15.1538 21.616 16.3581C21.0966 17.5625 20.3916 18.61 19.5012 19.5008C18.6107 20.3916 17.5636 21.0969 16.3598 21.6167C15.1559 22.1364 13.8697 22.3962 12.5012 22.3962ZM12.4993 20.8337C14.8257 20.8337 16.7962 20.0264 18.4108 18.4118C20.0254 16.7972 20.8327 14.8267 20.8327 12.5003C20.8327 10.1739 20.0254 8.20345 18.4108 6.58887C16.7962 4.97428 14.8257 4.16699 12.4993 4.16699C10.173 4.16699 8.20247 4.97428 6.58789 6.58887C4.97331 8.20345 4.16602 10.1739 4.16602 12.5003C4.16602 14.8267 4.97331 16.7972 6.58789 18.4118C8.20247 20.0264 10.173 20.8337 12.4993 20.8337Z" fill="white"/>
</g>
</svg>
