<svg width="20" height="20" viewBox="0 0 20 20" fill="none" xmlns="http://www.w3.org/2000/svg">
<mask id="mask0_390_3823" style="mask-type:alpha" maskUnits="userSpaceOnUse" x="0" y="0" width="20" height="20">
<rect width="20" height="20" fill="#D9D9D9"/>
</mask>
<g mask="url(#mask0_390_3823)">
<path d="M12.9352 13.3978L13.7094 12.6237L10.541 9.45533V5.00033H9.45768V9.92012L12.9352 13.3978ZM10.0008 17.5837C8.95623 17.5837 7.97428 17.3863 7.05498 16.9916C6.13581 16.5969 5.33032 16.0537 4.63852 15.3622C3.94671 14.6707 3.40331 13.8645 3.00831 12.9437C2.61345 12.023 2.41602 11.0391 2.41602 9.9922C2.41602 8.94526 2.61338 7.96088 3.0081 7.03908C3.40282 6.11727 3.94595 5.31394 4.63747 4.62908C5.329 3.94421 6.13518 3.40428 7.05602 3.00928C7.97671 2.61442 8.96053 2.41699 10.0075 2.41699C11.0544 2.41699 12.0388 2.61602 12.9606 3.01408C13.8825 3.41213 14.6845 3.95234 15.3664 4.6347C16.0484 5.31706 16.5882 6.11949 16.986 7.04199C17.3838 7.96449 17.5827 8.95012 17.5827 9.99887C17.5827 11.0435 17.3853 12.0254 16.9906 12.9447C16.5959 13.8639 16.0562 14.6694 15.3716 15.3612C14.6871 16.053 13.8832 16.5964 12.96 16.9914C12.0368 17.3862 11.0504 17.5837 10.0008 17.5837ZM10.0094 16.5003C11.8075 16.5003 13.3388 15.8649 14.6031 14.5941C15.8673 13.3232 16.4994 11.7887 16.4994 9.99033C16.4994 8.19213 15.8673 6.66088 14.6031 5.39658C13.3388 4.13241 11.8075 3.50033 10.0094 3.50033C8.21102 3.50033 6.67643 4.13241 5.4056 5.39658C4.13477 6.66088 3.49935 8.19213 3.49935 9.99033C3.49935 11.7887 4.13477 13.3232 5.4056 14.5941C6.67643 15.8649 8.21102 16.5003 10.0094 16.5003Z" fill="#5A4A42"/>
</g>
</svg>
