<svg width="60" height="60" viewBox="0 0 60 60" fill="none" xmlns="http://www.w3.org/2000/svg">
<mask id="mask0_921_709" style="mask-type:alpha" maskUnits="userSpaceOnUse" x="0" y="0" width="60" height="60">
<rect width="60" height="60" fill="#D9D9D9"/>
</mask>
<g mask="url(#mask0_921_709)">
<path d="M13.25 51.75V41.875C16.4167 39.2917 18.7396 36.6042 20.2188 33.8125C21.6979 31.0208 22.9375 27.7292 23.9375 23.9375H21.5625C20.4792 23.9375 19.5833 23.5833 18.875 22.875C18.1667 22.1667 17.8125 21.2708 17.8125 20.1875V8.25H26.375V15.1875H33.6875V8.25H42.25V20.1875C42.25 21.2708 41.8958 22.1667 41.1875 22.875C40.4792 23.5833 39.5833 23.9375 38.5 23.9375H36.0625C37.1042 27.7292 38.3438 31.0208 39.7813 33.8125C41.2188 36.6042 43.5417 39.2917 46.75 41.875V51.75H13.25ZM15 50H45V42.75C42 40.125 39.6875 37.3125 38.0625 34.3125C36.4375 31.3125 35.1667 27.8542 34.25 23.9375H25.75C24.8333 27.8542 23.5625 31.3125 21.9375 34.3125C20.3125 37.3125 18 40.125 15 42.75V50ZM21.5625 22.1875H38.5C39.0833 22.1875 39.5625 22 39.9375 21.625C40.3125 21.25 40.5 20.7708 40.5 20.1875V10H35.4375V16.9375H24.625V10H19.5625V20.1875C19.5625 20.7708 19.75 21.25 20.125 21.625C20.5 22 20.9792 22.1875 21.5625 22.1875ZM21.5625 22.1875H19.5625H40.5H21.5625Z" fill="#5A4A42"/>
</g>
</svg>
