<svg width="35" height="35" viewBox="0 0 35 35" fill="none" xmlns="http://www.w3.org/2000/svg">
<mask id="mask0_390_3926" style="mask-type:alpha" maskUnits="userSpaceOnUse" x="0" y="0" width="35" height="35">
<rect width="35" height="35" fill="#D9D9D9"/>
</mask>
<g mask="url(#mask0_390_3926)">
<path d="M17.5066 32.0833C15.4934 32.0833 13.6015 31.7005 11.8311 30.9349C10.0607 30.1693 8.51511 29.1262 7.19434 27.8057C5.87382 26.4849 4.83075 24.9387 4.06512 23.1671C3.2995 21.3954 2.91669 19.5024 2.91669 17.488C2.91669 15.4735 3.2995 13.5804 4.06512 11.8085C4.83075 10.0368 5.87382 8.49478 7.19434 7.18228C8.51511 5.86978 10.0613 4.83072 11.8329 4.06509C13.6046 3.29947 15.4976 2.91666 17.5121 2.91666C19.5265 2.91666 21.4197 3.29947 23.1915 4.06509C24.9632 4.83072 26.5052 5.86978 27.8177 7.18228C29.1302 8.49478 30.1693 10.0382 30.9349 11.8125C31.7005 13.5868 32.0834 15.4804 32.0834 17.4934C32.0834 19.5067 31.7005 21.3985 30.9349 23.1689C30.1693 24.9393 29.1302 26.4833 27.8177 27.8009C26.5052 29.1185 24.9618 30.1617 23.1875 30.9305C21.4132 31.6991 19.5196 32.0833 17.5066 32.0833ZM17.0625 24.8646H19.4932V10.1354H14.0729V12.5661H17.0625V24.8646Z" fill="#F87171"/>
</g>
</svg>
