<svg width="30" height="30" viewBox="0 0 30 30" fill="none" xmlns="http://www.w3.org/2000/svg">
<path d="M15 0C12.2268 -3.30701e-08 9.50789 0.768789 7.1453 2.22096C4.78272 3.67314 2.86895 5.75185 1.61661 8.22617C0.364262 10.7005 -0.177634 13.4735 0.0511172 16.2373C0.279868 19.001 1.27031 21.6473 2.91242 23.882C4.55453 26.1168 6.78401 27.8526 9.3532 28.8965C11.9224 29.9405 14.7307 30.2518 17.4662 29.7959C20.2016 29.3399 22.7571 28.1346 24.8488 26.3137C26.9405 24.4929 28.4865 22.1278 29.315 19.4813L25.0205 18.1369C24.4405 19.9895 23.3584 21.645 21.8942 22.9196C20.43 24.1942 18.6411 25.038 16.7263 25.3571C14.8115 25.6763 12.8457 25.4584 11.0472 24.7276C9.24881 23.9968 7.68817 22.7817 6.53869 21.2174C5.38922 19.6531 4.69591 17.8007 4.53578 15.8661C4.37566 13.9315 4.75498 11.9903 5.63163 10.2583C6.50827 8.52629 7.8479 7.0712 9.50171 6.05468C11.1555 5.03815 13.0588 4.5 15 4.5V0Z" fill="#312E81"/>
</svg>
