<svg width="22" height="22" viewBox="0 0 22 22" fill="none" xmlns="http://www.w3.org/2000/svg">
<mask id="mask0_390_3566" style="mask-type:alpha" maskUnits="userSpaceOnUse" x="0" y="0" width="22" height="22">
<rect width="22" height="22" fill="#D9D9D9"/>
</mask>
<g mask="url(#mask0_390_3566)">
<path d="M11.0007 15.583C11.2604 15.583 11.4781 15.4952 11.6538 15.3195C11.8295 15.1438 11.9173 14.9261 11.9173 14.6663C11.9173 14.4066 11.8295 14.1889 11.6538 14.0132C11.4781 13.8375 11.2604 13.7497 11.0007 13.7497C10.7409 13.7497 10.5232 13.8375 10.3475 14.0132C10.1718 14.1889 10.084 14.4066 10.084 14.6663C10.084 14.9261 10.1718 15.1438 10.3475 15.3195C10.5232 15.4952 10.7409 15.583 11.0007 15.583ZM10.084 11.9163H11.9173V6.41634H10.084V11.9163ZM11.0007 20.1663C9.7326 20.1663 8.54093 19.9257 7.42565 19.4445C6.31037 18.9632 5.34023 18.3101 4.51523 17.4851C3.69023 16.6601 3.03711 15.69 2.55586 14.5747C2.07461 13.4594 1.83398 12.2677 1.83398 10.9997C1.83398 9.73162 2.07461 8.53995 2.55586 7.42467C3.03711 6.3094 3.69023 5.33926 4.51523 4.51426C5.34023 3.68926 6.31037 3.03613 7.42565 2.55488C8.54093 2.07363 9.7326 1.83301 11.0007 1.83301C12.2687 1.83301 13.4604 2.07363 14.5757 2.55488C15.6909 3.03613 16.6611 3.68926 17.4861 4.51426C18.3111 5.33926 18.9642 6.3094 19.4454 7.42467C19.9267 8.53995 20.1673 9.73162 20.1673 10.9997C20.1673 12.2677 19.9267 13.4594 19.4454 14.5747C18.9642 15.69 18.3111 16.6601 17.4861 17.4851C16.6611 18.3101 15.6909 18.9632 14.5757 19.4445C13.4604 19.9257 12.2687 20.1663 11.0007 20.1663ZM11.0007 18.333C13.0479 18.333 14.7819 17.6226 16.2027 16.2018C17.6236 14.7809 18.334 13.0469 18.334 10.9997C18.334 8.95245 17.6236 7.21842 16.2027 5.79759C14.7819 4.37676 13.0479 3.66634 11.0007 3.66634C8.95343 3.66634 7.2194 4.37676 5.79857 5.79759C4.37773 7.21842 3.66732 8.95245 3.66732 10.9997C3.66732 13.0469 4.37773 14.7809 5.79857 16.2018C7.2194 17.6226 8.95343 18.333 11.0007 18.333Z" fill="#5A4A42"/>
</g>
</svg>
