<svg width="60" height="60" viewBox="0 0 60 60" fill="none" xmlns="http://www.w3.org/2000/svg">
<mask id="mask0_921_727" style="mask-type:alpha" maskUnits="userSpaceOnUse" x="0" y="0" width="60" height="60">
<rect width="60" height="60" fill="#D9D9D9"/>
</mask>
<g mask="url(#mask0_921_727)">
<path d="M30 9.875C31.625 9.875 33.0313 10.4688 34.2188 11.6563C35.4063 12.8438 36 14.25 36 15.875C36 17.5 35.4063 18.9063 34.2188 20.0938C33.0313 21.2813 31.625 21.875 30 21.875C28.375 21.875 26.9688 21.2813 25.7813 20.0938C24.5938 18.9063 24 17.5 24 15.875C24 14.25 24.5938 12.8438 25.7813 11.6563C26.9688 10.4688 28.375 9.875 30 9.875ZM30.0094 23.875C31.5569 23.875 33.0881 24.0625 34.6031 24.4375C36.1177 24.8125 37.4792 25.3125 38.6875 25.9375C39.9375 26.6042 40.9479 27.3617 41.7188 28.21C42.4896 29.0583 42.875 29.9883 42.875 31V42.53C42.875 43.0933 42.7473 43.6529 42.4919 44.2087C42.236 44.7646 41.8846 45.2783 41.4375 45.75C40.9725 46.2117 40.4327 46.6404 39.8181 47.0363C39.2035 47.4321 38.5142 47.795 37.75 48.125V43.6506C37.75 42.391 36.8806 41.3635 35.1419 40.5681C33.4031 39.7727 31.6892 39.375 30 39.375C28.375 39.375 26.7812 39.7083 25.2187 40.375C23.6562 41.0417 22.7083 41.9167 22.375 43C23.7083 43.5833 25.125 43.9375 26.625 44.0625C28.125 44.1875 29.6042 44.25 31.0625 44.25C31.2292 44.25 31.3854 44.2396 31.5313 44.2188C31.6771 44.1979 31.8333 44.1875 32 44.1875V49.3125C31.7763 49.3542 31.5446 49.375 31.305 49.375H30.5625C29.365 49.375 27.9927 49.2708 26.4456 49.0625C24.8985 48.8542 23.4271 48.4792 22.0312 47.9375C20.6354 47.3958 19.4688 46.6875 18.5312 45.8125C17.5938 44.9375 17.125 43.8333 17.125 42.5V31C17.125 29.9883 17.5104 29.0583 18.2813 28.21C19.0521 27.3617 20.0417 26.6042 21.25 25.9375C22.4583 25.3125 23.8333 24.8125 25.375 24.4375C26.9167 24.0625 28.4615 23.875 30.0094 23.875ZM30 35.875C31.1 35.875 32.0417 35.4833 32.825 34.7C33.6083 33.9167 34 32.975 34 31.875C34 30.775 33.6083 29.8333 32.825 29.05C32.0417 28.2667 31.1 27.875 30 27.875C28.9 27.875 27.9583 28.2667 27.175 29.05C26.3917 29.8333 26 30.775 26 31.875C26 32.975 26.3917 33.9167 27.175 34.7C27.9583 35.4833 28.9 35.875 30 35.875Z" fill="#5A4A42"/>
</g>
</svg>
