<svg width="48" height="48" viewBox="0 0 48 48" fill="none" xmlns="http://www.w3.org/2000/svg">
<mask id="mask0_390_2451" style="mask-type:alpha" maskUnits="userSpaceOnUse" x="0" y="0" width="48" height="48">
<rect width="48" height="48" fill="#D9D9D9"/>
</mask>
<g mask="url(#mask0_390_2451)">
<path d="M23.9965 31.4607C25.4705 31.4607 26.7845 31.0177 27.9385 30.1318C29.0922 29.2461 29.9332 28.1173 30.4615 26.7453H17.5385C18.0668 28.1173 18.9067 29.2461 20.058 30.1318C21.2097 31.0177 22.5225 31.4607 23.9965 31.4607ZM19.389 23.9222C20.117 23.9222 20.7342 23.6676 21.2405 23.1582C21.7468 22.6489 22 22.0303 22 21.3022C22 20.5746 21.7453 19.9576 21.236 19.4512C20.7263 18.9449 20.1077 18.6917 19.38 18.6917C18.6523 18.6917 18.0353 18.9464 17.529 19.4557C17.0227 19.9651 16.7695 20.5836 16.7695 21.3112C16.7695 22.0392 17.0242 22.6564 17.5335 23.1627C18.0428 23.6691 18.6613 23.9222 19.389 23.9222ZM28.62 23.9222C29.3477 23.9222 29.9647 23.6676 30.471 23.1582C30.9773 22.6489 31.2305 22.0303 31.2305 21.3022C31.2305 20.5746 30.9758 19.9576 30.4665 19.4512C29.9572 18.9449 29.3387 18.6917 28.611 18.6917C27.883 18.6917 27.2658 18.9464 26.7595 19.4557C26.2532 19.9651 26 20.5836 26 21.3112C26 22.0392 26.2547 22.6564 26.764 23.1627C27.2737 23.6691 27.8923 23.9222 28.62 23.9222ZM15.8145 13.6117L21.4115 6.25325C21.7492 5.81392 22.1413 5.48992 22.588 5.28125C23.0347 5.07292 23.5067 4.96875 24.004 4.96875C24.5013 4.96875 24.9718 5.07292 25.4155 5.28125C25.8592 5.48992 26.2502 5.81392 26.5885 6.25325L32.1855 13.6117L40.742 16.5068C41.4577 16.7481 42.0128 17.1617 42.4075 17.7477C42.8025 18.3334 43 18.9806 43 19.6892C43 20.0166 42.9522 20.3449 42.8565 20.6742C42.7612 21.0039 42.6052 21.3109 42.3885 21.5952L36.8615 29.3153L37.0615 37.5877C37.0742 38.5331 36.7555 39.3379 36.1055 40.0023C35.4555 40.6669 34.6785 40.9992 33.7745 40.9992C33.7505 40.9992 33.4487 40.9556 32.869 40.8683L24 38.3262L15.1385 40.8652C14.9668 40.9339 14.798 40.9734 14.632 40.9837C14.4663 40.9941 14.3145 40.9992 14.1765 40.9992C13.2615 40.9992 12.4847 40.6656 11.846 39.9982C11.2077 39.3309 10.9052 38.5107 10.9385 37.5378L11.1385 29.2633L5.5925 21.5647C5.3885 21.2631 5.23883 20.9484 5.1435 20.6207C5.04783 20.2931 5 19.9654 5 19.6378C5 18.9374 5.19983 18.2951 5.5995 17.7107C5.99883 17.1264 6.558 16.7188 7.277 16.4878L15.8145 13.6117ZM17.2075 15.5682L7.508 18.8378C7.31567 18.9018 7.18417 19.0331 7.1135 19.2318C7.04283 19.4308 7.07167 19.6136 7.2 19.7802L13.4575 28.6337L13.2075 38.1567C13.1948 38.3747 13.2718 38.5447 13.4385 38.6667C13.6052 38.7884 13.791 38.8236 13.996 38.7723L24 35.9452L34.004 38.8223C34.209 38.8736 34.3948 38.8384 34.5615 38.7167C34.7282 38.5947 34.8052 38.4248 34.7925 38.2068L34.5425 28.6337L40.8 19.8802C40.9283 19.7136 40.9572 19.5308 40.8865 19.3318C40.8158 19.1331 40.6843 19.0018 40.492 18.9378L30.7925 15.5682L24.481 7.28375C24.3653 7.11708 24.205 7.03375 24 7.03375C23.795 7.03375 23.6347 7.11708 23.519 7.28375L17.2075 15.5682Z" fill="#F77D7D"/>
</g>
</svg>
