<svg width="40" height="40" viewBox="0 0 40 40" fill="none" xmlns="http://www.w3.org/2000/svg">
<mask id="mask0_390_3866" style="mask-type:alpha" maskUnits="userSpaceOnUse" x="0" y="0" width="40" height="40">
<rect width="40" height="40" fill="#D9D9D9"/>
</mask>
<g mask="url(#mask0_390_3866)">
<path d="M18.6113 35V31.6667H15.278V28.8888H18.6113V24.8888C16.3613 24.5554 14.5024 23.5235 13.0346 21.7929C11.5671 20.0624 10.8334 18.0574 10.8334 15.7779C10.8334 13.2424 11.7292 11.0899 13.5209 9.32044C15.3125 7.55127 17.4723 6.66669 20 6.66669C22.5278 6.66669 24.6875 7.55127 26.4792 9.32044C28.2709 11.0899 29.1667 13.2424 29.1667 15.7779C29.1667 18.0574 28.433 20.0624 26.9655 21.7929C25.4977 23.5235 23.6388 24.5554 21.3888 24.8888V28.8888H24.7221V31.6667H21.3888V35H18.6113ZM19.9946 22.2221C21.7574 22.2221 23.2638 21.599 24.5138 20.3529C25.7638 19.1065 26.3888 17.6018 26.3888 15.8388C26.3888 14.076 25.7657 12.5696 24.5196 11.3196C23.2732 10.0696 21.7685 9.4446 20.0055 9.4446C18.2427 9.4446 16.7363 10.0677 15.4863 11.3138C14.2363 12.5602 13.6113 14.0649 13.6113 15.8279C13.6113 17.5907 14.2343 19.0971 15.4805 20.3471C16.7268 21.5971 18.2316 22.2221 19.9946 22.2221Z" fill="#F87171"/>
</g>
</svg>
