<svg width="76" height="76" viewBox="0 0 76 76" fill="none" xmlns="http://www.w3.org/2000/svg">
<path d="M0 29C0 12.9837 12.9837 0 29 0H47C63.0163 0 76 12.9837 76 29V47C76 63.0163 63.0163 76 47 76H29C12.9837 76 0 63.0163 0 47V29Z" fill="#FAEFEF"/>
<path d="M33.8666 23C34.3662 23.0001 34.8594 23.1124 35.3097 23.3288C35.7601 23.5452 36.156 23.86 36.4683 24.25L38.8016 27.1667H51.3333C52.2173 27.1667 53.0652 27.5179 53.6903 28.143C54.3154 28.7681 54.6666 29.6159 54.6666 30.5V49.6667C54.6666 50.5507 54.3154 51.3986 53.6903 52.0237C53.0652 52.6488 52.2173 53 51.3333 53H24.6666C23.7825 53 22.9347 52.6488 22.3096 52.0237C21.6844 51.3986 21.3333 50.5507 21.3333 49.6667V26.3333C21.3333 25.4493 21.6844 24.6014 22.3096 23.9763C22.9347 23.3512 23.7825 23 24.6666 23H33.8666ZM33.8666 26.3333H24.6666V49.6667H51.3333V30.5H38.7999C38.3003 30.4999 37.8071 30.3876 37.3568 30.1712C36.9064 29.9548 36.5105 29.64 36.1983 29.25L33.8666 26.3333ZM39.1783 34.955L42.7133 38.49C42.8724 38.6437 42.9994 38.8277 43.0868 39.031C43.1741 39.2343 43.2201 39.453 43.222 39.6743C43.2239 39.8956 43.1818 40.1151 43.098 40.3199C43.0142 40.5248 42.8904 40.7108 42.7339 40.8673C42.5774 41.0238 42.3913 41.1476 42.1865 41.2314C41.9817 41.3152 41.7622 41.3573 41.5409 41.3554C41.3196 41.3535 41.1009 41.3075 40.8976 41.2202C40.6942 41.1328 40.5103 41.0059 40.3566 40.8467L39.6666 40.1567V44.6667C39.6666 45.1087 39.491 45.5326 39.1784 45.8452C38.8659 46.1577 38.4419 46.3333 37.9999 46.3333C37.5579 46.3333 37.134 46.1577 36.8214 45.8452C36.5088 45.5326 36.3333 45.1087 36.3333 44.6667V40.1567L35.6433 40.8467C35.4895 41.0059 35.3056 41.1328 35.1023 41.2202C34.8989 41.3075 34.6802 41.3535 34.4589 41.3554C34.2376 41.3573 34.0182 41.3152 33.8133 41.2314C33.6085 41.1476 33.4224 41.0238 33.2659 40.8673C33.1094 40.7108 32.9857 40.5248 32.9019 40.3199C32.8181 40.1151 32.7759 39.8956 32.7778 39.6743C32.7798 39.453 32.8257 39.2343 32.9131 39.031C33.0004 38.8277 33.1274 38.6437 33.2866 38.49L36.8199 34.955C36.9747 34.8 37.1585 34.6771 37.3609 34.5932C37.5632 34.5094 37.7801 34.4662 37.9991 34.4662C38.2181 34.4662 38.435 34.5094 38.6373 34.5932C38.8397 34.6771 39.0235 34.8 39.1783 34.955Z" fill="#F4C2C2"/>
</svg>
