<svg width="35" height="35" viewBox="0 0 35 35" fill="none" xmlns="http://www.w3.org/2000/svg">
<mask id="mask0_390_3886" style="mask-type:alpha" maskUnits="userSpaceOnUse" x="0" y="0" width="35" height="35">
<rect width="35" height="35" fill="#D9D9D9"/>
</mask>
<g mask="url(#mask0_390_3886)">
<path d="M15.3854 24.1598L25.6911 13.8542L23.8922 12.0797L15.3854 20.5869L11.0833 16.2848L9.30887 18.0589L15.3854 24.1598ZM17.5 32.0833C15.4989 32.0833 13.6112 31.7005 11.8369 30.9349C10.0626 30.1693 8.51505 29.1262 7.19428 27.8057C5.87376 26.4849 4.83069 24.9374 4.06506 23.1631C3.29944 21.3888 2.91663 19.5011 2.91663 17.5C2.91663 15.4826 3.29944 13.5868 4.06506 11.8125C4.83069 10.0382 5.87376 8.49478 7.19428 7.18228C8.51505 5.86978 10.0626 4.83072 11.8369 4.06509C13.6112 3.29947 15.4989 2.91666 17.5 2.91666C19.5173 2.91666 21.4132 3.29947 23.1875 4.06509C24.9618 4.83072 26.5052 5.86978 27.8177 7.18228C29.1302 8.49478 30.1692 10.0382 30.9349 11.8125C31.7005 13.5868 32.0833 15.4826 32.0833 17.5C32.0833 19.5011 31.7005 21.3888 30.9349 23.1631C30.1692 24.9374 29.1302 26.4849 27.8177 27.8057C26.5052 29.1262 24.9618 30.1693 23.1875 30.9349C21.4132 31.7005 19.5173 32.0833 17.5 32.0833Z" fill="#F87171"/>
</g>
</svg>
