<svg width="62" height="62" viewBox="0 0 62 62" fill="none" xmlns="http://www.w3.org/2000/svg">
<path d="M0 15C0 6.71573 6.71573 0 15 0H47C55.2843 0 62 6.71573 62 15V47C62 55.2843 55.2843 62 47 62H15C6.71573 62 0 55.2843 0 47V15Z" fill="#EAEAF6"/>
<path d="M28.1667 45.1667H33.8334M25.3334 35.25H36.6667M21.0834 26.75C21.0834 24.12 22.1282 21.5976 23.9879 19.7379C25.8476 17.8782 28.37 16.8334 31 16.8334C33.6301 16.8334 36.1525 17.8782 38.0122 19.7379C39.8719 21.5976 40.9167 24.12 40.9167 26.75C40.9179 28.3468 40.5318 29.92 39.7916 31.3348C39.0514 32.7496 37.9791 33.9637 36.6667 34.8732L35.8989 38.5084C35.7972 39.1784 35.4588 39.7898 34.9449 40.2317C34.4311 40.6735 33.7758 40.9166 33.0981 40.9167H28.902C28.2243 40.9166 27.569 40.6735 27.0552 40.2317C26.5413 39.7898 26.2029 39.1784 26.1012 38.5084L25.3334 34.8888C24.0205 33.9761 22.9482 32.7591 22.2081 31.3418C21.468 29.9244 21.0821 28.349 21.0834 26.75Z" stroke="#312E81" stroke-width="2" stroke-linecap="round" stroke-linejoin="round"/>
</svg>
