<svg width="30" height="30" viewBox="0 0 30 30" fill="none" xmlns="http://www.w3.org/2000/svg">
<mask id="mask0_390_3441" style="mask-type:alpha" maskUnits="userSpaceOnUse" x="0" y="0" width="30" height="30">
<rect width="30" height="30" fill="#D9D9D9"/>
</mask>
<g mask="url(#mask0_390_3441)">
<path d="M15 25.3956L13.8781 24.3797C11.7558 22.4416 10.0023 20.7743 8.6175 19.3778C7.2325 17.9811 6.1326 16.7405 5.31781 15.6559C4.50281 14.5711 3.93365 13.5884 3.61031 12.7078C3.28677 11.827 3.125 10.9404 3.125 10.0481C3.125 8.31375 3.70979 6.86177 4.87937 5.69219C6.04896 4.5224 7.49677 3.9375 9.22281 3.9375C10.3622 3.9375 11.4252 4.21813 12.4119 4.77938C13.3985 5.34042 14.2612 6.15281 15 7.21656C15.8008 6.12198 16.6851 5.30177 17.6528 4.75594C18.6205 4.21031 19.662 3.9375 20.7772 3.9375C22.5032 3.9375 23.951 4.5224 25.1206 5.69219C26.2902 6.86177 26.875 8.31375 26.875 10.0481C26.875 10.9404 26.7132 11.827 26.3897 12.7078C26.0664 13.5884 25.4975 14.5705 24.6831 15.6541C23.869 16.7376 22.7698 17.9782 21.3856 19.3759C20.0015 20.7736 18.2469 22.4416 16.1219 24.3797L15 25.3956ZM15 23.2981C17.0517 21.4304 18.74 19.8296 20.065 18.4956C21.39 17.1617 22.4409 15.9972 23.2178 15.0022C23.9947 14.0072 24.5367 13.1229 24.8437 12.3494C25.1508 11.5758 25.3044 10.8097 25.3044 10.0509C25.3044 8.7424 24.8766 7.65812 24.0209 6.79812C23.1651 5.93812 22.0854 5.50813 20.7819 5.50813C19.7425 5.50813 18.7854 5.81354 17.9106 6.42438C17.0358 7.03521 16.2948 7.92156 15.6875 9.08344H14.2997C13.6928 7.9274 12.9527 7.0425 12.0794 6.42875C11.206 5.815 10.2523 5.50813 9.21812 5.50813C7.9225 5.50813 6.8449 5.93812 5.98531 6.79812C5.12552 7.65812 4.69562 8.74448 4.69562 10.0572C4.69562 10.8151 4.84958 11.5822 5.1575 12.3584C5.46562 13.1349 6.00625 14.0223 6.77938 15.0206C7.5525 16.0192 8.60604 17.1823 9.94 18.51C11.2737 19.8377 12.9604 21.4337 15 23.2981Z" fill="#F87171"/>
</g>
</svg>
