<svg width="40" height="40" viewBox="0 0 40 40" fill="none" xmlns="http://www.w3.org/2000/svg">
<mask id="mask0_390_3859" style="mask-type:alpha" maskUnits="userSpaceOnUse" x="0" y="0" width="40" height="40">
<rect width="40" height="40" fill="#D9D9D9"/>
</mask>
<g mask="url(#mask0_390_3859)">
<path d="M33.3333 6.66669V16.1113H30.5554V11.4304L23.2362 18.7084C23.8009 19.5047 24.2361 20.3682 24.5416 21.2988C24.8472 22.2293 25 23.1853 25 24.1667C25 26.7222 24.1111 28.8889 22.3333 30.6667C20.5555 32.4445 18.3888 33.3334 15.8333 33.3334C13.2777 33.3334 11.1111 32.4445 9.33329 30.6667C7.55551 28.8889 6.66663 26.7222 6.66663 24.1667C6.66663 21.6111 7.55551 19.4445 9.33329 17.6667C11.1111 15.8889 13.2777 15 15.8333 15C16.8055 15 17.7545 15.1504 18.6804 15.4513C19.6065 15.7524 20.463 16.1899 21.25 16.7638L28.5695 9.4446H23.8887V6.66669H33.3333ZM15.8387 17.7779C14.0759 17.7779 12.5695 18.401 11.3195 19.6471C10.0695 20.8935 9.44454 22.3982 9.44454 24.1613C9.44454 25.924 10.0676 27.4304 11.3137 28.6804C12.5601 29.9304 14.0648 30.5554 15.8279 30.5554C17.5907 30.5554 19.097 29.9324 20.347 28.6863C21.597 27.4399 22.222 25.9352 22.222 24.1721C22.222 22.4093 21.599 20.9029 20.3529 19.6529C19.1065 18.4029 17.6018 17.7779 15.8387 17.7779Z" fill="#312E81"/>
</g>
</svg>
