<svg width="19" height="19" viewBox="0 0 19 19" fill="none" xmlns="http://www.w3.org/2000/svg">
<path d="M5.34376 6.53124V2.96874C5.34376 2.81127 5.40632 2.66025 5.51767 2.5489C5.62902 2.43755 5.78004 2.37499 5.93751 2.37499C6.09498 2.37499 6.24601 2.43755 6.35736 2.5489C6.46871 2.66025 6.53126 2.81127 6.53126 2.96874V6.53124C6.53126 6.68871 6.46871 6.83973 6.35736 6.95108C6.24601 7.06243 6.09498 7.12499 5.93751 7.12499C5.78004 7.12499 5.62902 7.06243 5.51767 6.95108C5.40632 6.83973 5.34376 6.68871 5.34376 6.53124ZM16.0313 2.96874V16.625C16.0313 16.7825 15.9687 16.9335 15.8574 17.0448C15.746 17.1562 15.595 17.2187 15.4375 17.2187C15.28 17.2187 15.129 17.1562 15.0177 17.0448C14.9063 16.9335 14.8438 16.7825 14.8438 16.625V13.0625H11.2813C11.1238 13.0625 10.9728 12.9999 10.8614 12.8886C10.7501 12.7772 10.6875 12.6262 10.6875 12.4687C10.7151 11.0465 10.8948 9.63124 11.2234 8.24718C11.9492 5.24206 13.3252 3.22776 15.2037 2.42323C15.294 2.38456 15.3925 2.36888 15.4903 2.37762C15.5881 2.38636 15.6823 2.41923 15.7643 2.47328C15.8463 2.52734 15.9136 2.6009 15.9602 2.68737C16.0068 2.77384 16.0312 2.87052 16.0313 2.96874ZM14.8438 4.00038C12.4561 5.82394 11.9886 10.2659 11.8973 11.875H14.8438V4.00038ZM8.8981 2.87151C8.88647 2.79355 8.85943 2.71868 8.81856 2.65128C8.7777 2.58387 8.72382 2.52528 8.66007 2.47892C8.59632 2.43255 8.52397 2.39935 8.44726 2.38124C8.37054 2.36313 8.29098 2.36048 8.21323 2.37344C8.13548 2.38639 8.06108 2.41471 7.99439 2.45672C7.92769 2.49873 7.87003 2.5536 7.82476 2.61814C7.77949 2.68267 7.74753 2.75557 7.73073 2.83258C7.71393 2.9096 7.71264 2.98919 7.72692 3.06671L8.31251 6.578C8.31251 7.20789 8.06229 7.81198 7.61689 8.25738C7.17149 8.70278 6.5674 8.953 5.93751 8.953C5.30762 8.953 4.70353 8.70278 4.25813 8.25738C3.81273 7.81198 3.56251 7.20789 3.56251 6.578L4.14735 3.06671C4.16164 2.98919 4.16035 2.9096 4.14355 2.83258C4.12675 2.75557 4.09479 2.68267 4.04952 2.61814C4.00425 2.5536 3.94659 2.49873 3.87989 2.45672C3.8132 2.41471 3.7388 2.38639 3.66105 2.37344C3.58329 2.36048 3.50374 2.36313 3.42702 2.38124C3.3503 2.39935 3.27796 2.43255 3.21421 2.47892C3.15046 2.52528 3.09658 2.58387 3.05572 2.65128C3.01485 2.71868 2.98781 2.79355 2.97618 2.87151L2.38243 6.43401C2.3773 6.46616 2.37481 6.49868 2.37501 6.53124C2.3762 7.37274 2.67479 8.18674 3.21804 8.82939C3.76128 9.47205 4.5142 9.902 5.34376 10.0433V16.625C5.34376 16.7825 5.40632 16.9335 5.51767 17.0448C5.62902 17.1562 5.78004 17.2187 5.93751 17.2187C6.09498 17.2187 6.24601 17.1562 6.35736 17.0448C6.46871 16.9335 6.53126 16.7825 6.53126 16.625V10.0433C7.36082 9.902 8.11374 9.47205 8.65698 8.82939C9.20023 8.18674 9.49882 7.37274 9.50001 6.53124C9.49996 6.49866 9.49723 6.46614 9.49185 6.43401L8.8981 2.87151Z" fill="#5A4A42"/>
</svg>
