<svg width="16" height="15" viewBox="0 0 16 15" fill="none" xmlns="http://www.w3.org/2000/svg">
<path d="M3.75 13.3873V10.25H1.58333C1.29602 10.25 1.02047 10.1359 0.817301 9.9327C0.614137 9.72953 0.5 9.45398 0.5 9.16667V1.58333C0.5 1.29602 0.614137 1.02047 0.817301 0.817301C1.02047 0.614137 1.29602 0.5 1.58333 0.5H13.5C13.7873 0.5 14.0629 0.614137 14.266 0.817301C14.4692 1.02047 14.5833 1.29602 14.5833 1.58333V9.16667C14.5833 9.45398 14.4692 9.72953 14.266 9.9327C14.0629 10.1359 13.7873 10.25 13.5 10.25H7.54167L4.21258 13.5791C4.17471 13.6171 4.1264 13.6429 4.0738 13.6534C4.0212 13.6639 3.96667 13.6585 3.91712 13.638C3.86758 13.6175 3.82524 13.5827 3.79549 13.5381C3.76574 13.4934 3.7499 13.441 3.75 13.3873Z" stroke="#5A4A42"/>
<path d="M3.75 7H11.3333M3.75 3.75H11.3333" stroke="#5A4A42" stroke-linecap="round"/>
</svg>
