<svg width="25" height="25" viewBox="0 0 25 25" fill="none" xmlns="http://www.w3.org/2000/svg">
<mask id="mask0_420_3255" style="mask-type:alpha" maskUnits="userSpaceOnUse" x="0" y="0" width="25" height="25">
<rect width="25" height="25" fill="#D9D9D9"/>
</mask>
<g mask="url(#mask0_420_3255)">
<path d="M12.5 12.1794C11.4974 12.1794 10.6391 11.8224 9.92526 11.1085C9.2112 10.3945 8.85417 9.53613 8.85417 8.53353C8.85417 7.53092 9.2112 6.67268 9.92526 5.95879C10.6391 5.24473 11.4974 4.8877 12.5 4.8877C13.5026 4.8877 14.3609 5.24473 15.0747 5.95879C15.7888 6.67268 16.1458 7.53092 16.1458 8.53353C16.1458 9.53613 15.7888 10.3945 15.0747 11.1085C14.3609 11.8224 13.5026 12.1794 12.5 12.1794ZM4.6875 20.1122V17.7963C4.6875 17.2862 4.82604 16.8138 5.10313 16.3791C5.38021 15.9444 5.75052 15.6102 6.21406 15.3765C7.24358 14.8718 8.2822 14.4933 9.32995 14.2408C10.3777 13.9884 11.4344 13.8622 12.5 13.8622C13.5656 13.8622 14.6223 13.9884 15.6701 14.2408C16.7178 14.4933 17.7564 14.8718 18.7859 15.3765C19.2495 15.6102 19.6198 15.9444 19.8969 16.3791C20.174 16.8138 20.3125 17.2862 20.3125 17.7963V20.1122H4.6875ZM6.25 18.5497H18.75V17.7963C18.75 17.5854 18.6889 17.39 18.5667 17.2104C18.4444 17.0308 18.2786 16.8843 18.069 16.7708C17.1714 16.3288 16.2563 15.9939 15.3237 15.7661C14.3909 15.5385 13.4497 15.4247 12.5 15.4247C11.5503 15.4247 10.6091 15.5385 9.6763 15.7661C8.74366 15.9939 7.82856 16.3288 6.93099 16.7708C6.72144 16.8843 6.55556 17.0308 6.43333 17.2104C6.31111 17.39 6.25 17.5854 6.25 17.7963V18.5497ZM12.5 10.6169C13.0729 10.6169 13.5634 10.4129 13.9714 10.0049C14.3793 9.5969 14.5833 9.10645 14.5833 8.53353C14.5833 7.96061 14.3793 7.47016 13.9714 7.06217C13.5634 6.65419 13.0729 6.4502 12.5 6.4502C11.9271 6.4502 11.4366 6.65419 11.0286 7.06217C10.6207 7.47016 10.4167 7.96061 10.4167 8.53353C10.4167 9.10645 10.6207 9.5969 11.0286 10.0049C11.4366 10.4129 11.9271 10.6169 12.5 10.6169Z" fill="#5A4A42"/>
</g>
</svg>
