<svg width="19" height="19" viewBox="0 0 19 19" fill="none" xmlns="http://www.w3.org/2000/svg">
<path fill-rule="evenodd" clip-rule="evenodd" d="M4.75 3.5625H14.25C15.5098 3.5625 16.718 4.06294 17.6088 4.95374C18.4996 5.84454 19 7.05272 19 8.3125V11.875C19 13.1348 18.4996 14.343 17.6088 15.2338C16.718 16.1246 15.5098 16.625 14.25 16.625H4.75C3.49022 16.625 2.28204 16.1246 1.39124 15.2338C0.500445 14.343 0 13.1348 0 11.875V8.3125C0 7.05272 0.500445 5.84454 1.39124 4.95374C2.28204 4.06294 3.49022 3.5625 4.75 3.5625ZM4.75 4.75C3.80517 4.75 2.89903 5.12533 2.23093 5.79343C1.56283 6.46153 1.1875 7.36767 1.1875 8.3125V11.875C1.1875 12.8198 1.56283 13.726 2.23093 14.3941C2.89903 15.0622 3.80517 15.4375 4.75 15.4375H14.25C15.1948 15.4375 16.101 15.0622 16.7691 14.3941C17.4372 13.726 17.8125 12.8198 17.8125 11.875V8.3125C17.8125 7.36767 17.4372 6.46153 16.7691 5.79343C16.101 5.12533 15.1948 4.75 14.25 4.75H4.75Z" fill="#5A4A42"/>
<path d="M6.53125 7.125C6.37378 7.125 6.22276 7.18756 6.11141 7.29891C6.00006 7.41026 5.9375 7.56128 5.9375 7.71875V9.5H4.15625C3.99878 9.5 3.84776 9.56256 3.73641 9.6739C3.62506 9.78525 3.5625 9.93628 3.5625 10.0938C3.5625 10.2512 3.62506 10.4022 3.73641 10.5136C3.84776 10.6249 3.99878 10.6875 4.15625 10.6875H5.9375V12.4688C5.9375 12.6262 6.00006 12.7772 6.11141 12.8886C6.22276 12.9999 6.37378 13.0625 6.53125 13.0625C6.68872 13.0625 6.83974 12.9999 6.95109 12.8886C7.06244 12.7772 7.125 12.6262 7.125 12.4688V10.6875H8.90625C9.06372 10.6875 9.21475 10.6249 9.32609 10.5136C9.43744 10.4022 9.5 10.2512 9.5 10.0938C9.5 9.93628 9.43744 9.78525 9.32609 9.6739C9.21475 9.56256 9.06372 9.5 8.90625 9.5H7.125V7.71875C7.125 7.56128 7.06244 7.41026 6.95109 7.29891C6.83974 7.18756 6.68872 7.125 6.53125 7.125ZM15.4375 8.3125C15.4375 8.62744 15.3124 8.92949 15.0897 9.15219C14.867 9.37489 14.5649 9.5 14.25 9.5C13.9351 9.5 13.633 9.37489 13.4103 9.15219C13.1876 8.92949 13.0625 8.62744 13.0625 8.3125C13.0625 7.99756 13.1876 7.69551 13.4103 7.47281C13.633 7.25011 13.9351 7.125 14.25 7.125C14.5649 7.125 14.867 7.25011 15.0897 7.47281C15.3124 7.69551 15.4375 7.99756 15.4375 8.3125ZM14.25 11.875C14.25 12.1899 14.1249 12.492 13.9022 12.7147C13.6795 12.9374 13.3774 13.0625 13.0625 13.0625C12.7476 13.0625 12.4455 12.9374 12.2228 12.7147C12.0001 12.492 11.875 12.1899 11.875 11.875C11.875 11.5601 12.0001 11.258 12.2228 11.0353C12.4455 10.8126 12.7476 10.6875 13.0625 10.6875C13.3774 10.6875 13.6795 10.8126 13.9022 11.0353C14.1249 11.258 14.25 11.5601 14.25 11.875Z" fill="#5A4A42"/>
</svg>
