<svg width="22" height="22" viewBox="0 0 22 22" fill="none" xmlns="http://www.w3.org/2000/svg">
<mask id="mask0_390_3519" style="mask-type:alpha" maskUnits="userSpaceOnUse" x="0" y="0" width="22" height="22">
<rect width="22" height="22" fill="#D9D9D9"/>
</mask>
<g mask="url(#mask0_390_3519)">
<path d="M10.9548 16.4997C11.2757 16.4997 11.5468 16.3889 11.7684 16.1674C11.9899 15.9459 12.1007 15.6747 12.1007 15.3538C12.1007 15.033 11.9899 14.7618 11.7684 14.5403C11.5468 14.3188 11.2757 14.208 10.9548 14.208C10.634 14.208 10.3628 14.3188 10.1413 14.5403C9.91975 14.7618 9.80898 15.033 9.80898 15.3538C9.80898 15.6747 9.91975 15.9459 10.1413 16.1674C10.3628 16.3889 10.634 16.4997 10.9548 16.4997ZM10.1298 12.9705H11.8257C11.8257 12.4663 11.8829 12.0691 11.9975 11.7788C12.1121 11.4886 12.4368 11.0913 12.9715 10.5872C13.3687 10.19 13.6819 9.81183 13.9111 9.4528C14.1402 9.09377 14.2548 8.66217 14.2548 8.15801C14.2548 7.30245 13.9416 6.64551 13.3152 6.18717C12.6888 5.72884 11.9479 5.49967 11.0923 5.49967C10.2215 5.49967 9.51489 5.72884 8.97253 6.18717C8.43016 6.64551 8.05204 7.19551 7.83815 7.83717L9.35065 8.43301C9.42704 8.15801 9.59892 7.86009 9.86628 7.53926C10.1336 7.21842 10.5423 7.05801 11.0923 7.05801C11.5812 7.05801 11.9479 7.19169 12.1923 7.45905C12.4368 7.72641 12.559 8.02051 12.559 8.34134C12.559 8.6469 12.4673 8.93336 12.284 9.20072C12.1007 9.46808 11.8715 9.71634 11.5965 9.94551C10.9243 10.5413 10.5118 10.992 10.359 11.2976C10.2062 11.6031 10.1298 12.1608 10.1298 12.9705ZM11.0007 20.1663C9.7326 20.1663 8.54093 19.9257 7.42565 19.4445C6.31037 18.9632 5.34023 18.3101 4.51523 17.4851C3.69023 16.6601 3.03711 15.69 2.55586 14.5747C2.07461 13.4594 1.83398 12.2677 1.83398 10.9997C1.83398 9.73162 2.07461 8.53995 2.55586 7.42467C3.03711 6.3094 3.69023 5.33926 4.51523 4.51426C5.34023 3.68926 6.31037 3.03613 7.42565 2.55488C8.54093 2.07363 9.7326 1.83301 11.0007 1.83301C12.2687 1.83301 13.4604 2.07363 14.5757 2.55488C15.6909 3.03613 16.6611 3.68926 17.4861 4.51426C18.3111 5.33926 18.9642 6.3094 19.4454 7.42467C19.9267 8.53995 20.1673 9.73162 20.1673 10.9997C20.1673 12.2677 19.9267 13.4594 19.4454 14.5747C18.9642 15.69 18.3111 16.6601 17.4861 17.4851C16.6611 18.3101 15.6909 18.9632 14.5757 19.4445C13.4604 19.9257 12.2687 20.1663 11.0007 20.1663ZM11.0007 18.333C13.0479 18.333 14.7819 17.6226 16.2027 16.2018C17.6236 14.7809 18.334 13.0469 18.334 10.9997C18.334 8.95245 17.6236 7.21842 16.2027 5.79759C14.7819 4.37676 13.0479 3.66634 11.0007 3.66634C8.95343 3.66634 7.2194 4.37676 5.79857 5.79759C4.37773 7.21842 3.66732 8.95245 3.66732 10.9997C3.66732 13.0469 4.37773 14.7809 5.79857 16.2018C7.2194 17.6226 8.95343 18.333 11.0007 18.333Z" fill="#5A4A42"/>
</g>
</svg>
