<svg width="62" height="62" viewBox="0 0 62 62" fill="none" xmlns="http://www.w3.org/2000/svg">
<path d="M0 15C0 6.71573 6.71573 0 15 0H47C55.2843 0 62 6.71573 62 15V47C62 55.2843 55.2843 62 47 62H15C6.71573 62 0 55.2843 0 47V15Z" fill="#FFF3E0"/>
<mask id="mask0_390_3662" style="mask-type:alpha" maskUnits="userSpaceOnUse" x="11" y="11" width="40" height="40">
<rect x="11" y="11" width="40" height="40" fill="#D9D9D9"/>
</mask>
<g mask="url(#mask0_390_3662)">
<path d="M29.0867 35.5833H32.9133L31.9371 29.9937C32.4604 29.7807 32.8847 29.4464 33.21 28.9908C33.535 28.5353 33.6975 28.0262 33.6975 27.4637C33.6975 26.7174 33.4346 26.0811 32.9088 25.555C32.3826 25.0292 31.7464 24.7662 31 24.7662C30.2536 24.7662 29.6174 25.0292 29.0913 25.555C28.5654 26.0811 28.3025 26.7174 28.3025 27.4637C28.3025 28.0262 28.465 28.5353 28.79 28.9908C29.1153 29.4464 29.5396 29.7807 30.0629 29.9937L29.0867 35.5833ZM31 46.7842C27.3839 45.7942 24.3965 43.6499 22.0379 40.3512C19.6793 37.0529 18.5 33.3889 18.5 29.3592V19.8933L31 15.2137L43.5 19.8933V29.3592C43.5 33.3889 42.3207 37.0529 39.9621 40.3512C37.6035 43.6499 34.6161 45.7942 31 46.7842ZM31 44.5896C34.0356 43.609 36.5288 41.6996 38.4796 38.8612C40.4304 36.0229 41.4058 32.8556 41.4058 29.3592V21.3429L31 17.44L20.5942 21.3429V29.3592C20.5942 32.8556 21.5696 36.0229 23.5204 38.8612C25.4712 41.6996 27.9644 43.609 31 44.5896Z" fill="#FF9800"/>
</g>
</svg>
