<svg width="19" height="19" viewBox="0 0 19 19" fill="none" xmlns="http://www.w3.org/2000/svg">
<path d="M15.0416 2.57291H5.34367C4.83473 2.55798 4.34063 2.74541 3.96964 3.09414C3.59865 3.44286 3.38105 3.92444 3.3645 4.43333V14.25C3.38516 14.8471 3.6418 15.4116 4.07813 15.8198C4.51446 16.2279 5.09485 16.4463 5.692 16.4271H15.0416C15.1984 16.425 15.3483 16.3618 15.4592 16.2509C15.5701 16.14 15.6333 15.9902 15.6353 15.8333V3.16666C15.6333 3.00983 15.5701 2.85999 15.4592 2.74908C15.3483 2.63818 15.1984 2.57496 15.0416 2.57291ZM14.4478 15.2396H5.692C5.40968 15.2592 5.13112 15.166 4.91741 14.9805C4.70369 14.795 4.57229 14.5323 4.552 14.25C4.57229 13.9677 4.70369 13.705 4.91741 13.5195C5.13112 13.334 5.40968 13.2408 5.692 13.2604H14.4478V15.2396ZM14.4478 12.0729H5.692C5.29344 12.0733 4.9014 12.1741 4.552 12.3658V4.43333C4.57013 4.24007 4.66306 4.06155 4.81096 3.93584C4.95885 3.81012 5.15001 3.74717 5.34367 3.76041H14.4478V12.0729Z" fill="#5A4A42"/>
<path d="M6.927 6.92706H12.0728C12.2303 6.92706 12.3813 6.86451 12.4927 6.75316C12.604 6.64181 12.6666 6.49079 12.6666 6.33331C12.6666 6.17584 12.604 6.02482 12.4927 5.91347C12.3813 5.80212 12.2303 5.73956 12.0728 5.73956H6.927C6.76953 5.73956 6.61851 5.80212 6.50716 5.91347C6.39581 6.02482 6.33325 6.17584 6.33325 6.33331C6.33325 6.49079 6.39581 6.64181 6.50716 6.75316C6.61851 6.86451 6.76953 6.92706 6.927 6.92706ZM6.927 9.6979H12.0728C12.2303 9.6979 12.3813 9.63534 12.4927 9.52399C12.604 9.41264 12.6666 9.26162 12.6666 9.10415C12.6666 8.94667 12.604 8.79565 12.4927 8.6843C12.3813 8.57295 12.2303 8.5104 12.0728 8.5104H6.927C6.76953 8.5104 6.61851 8.57295 6.50716 8.6843C6.39581 8.79565 6.33325 8.94667 6.33325 9.10415C6.33325 9.26162 6.39581 9.41264 6.50716 9.52399C6.61851 9.63534 6.76953 9.6979 6.927 9.6979Z" fill="#5A4A42"/>
</svg>
