<svg width="62" height="62" viewBox="0 0 62 62" fill="none" xmlns="http://www.w3.org/2000/svg">
<path d="M0 15C0 6.71573 6.71573 0 15 0H47C55.2843 0 62 6.71573 62 15V47C62 55.2843 55.2843 62 47 62H15C6.71573 62 0 55.2843 0 47V15Z" fill="#FFF8F3"/>
<path d="M39.9167 22.5H37.6699L36.2532 21.0833C35.433 20.2631 33.9936 19.6667 32.8334 19.6667H27.1667C26.0065 19.6667 24.5671 20.2631 23.7469 21.0833L22.3302 22.5H20.0834C17.7402 22.5 15.8334 24.4068 15.8334 26.75V38.0833C15.8334 40.4265 17.7402 42.3333 20.0834 42.3333H39.9167C42.2599 42.3333 44.1667 40.4265 44.1667 38.0833V26.75C44.1667 24.4068 42.2599 22.5 39.9167 22.5ZM30 36.6667C28.6848 36.6665 27.4235 36.1438 26.4937 35.2137C25.5638 34.2836 25.0415 33.0221 25.0417 31.7069C25.0419 30.3917 25.5645 29.1304 26.4947 28.2005C27.4248 27.2707 28.6862 26.7484 30.0015 26.7486C31.3167 26.7488 32.578 27.2714 33.5078 28.2015C34.4377 29.1317 34.96 30.3931 34.9598 31.7083C34.9596 33.0235 34.437 34.2848 33.5068 35.2147C32.5767 36.1446 31.3153 36.6668 30 36.6667ZM38.5 30.0069C38.2582 30.0069 38.0187 29.9593 37.7953 29.8667C37.5718 29.7742 37.3688 29.6385 37.1978 29.4675C37.0268 29.2965 36.8911 29.0935 36.7986 28.87C36.706 28.6466 36.6584 28.4071 36.6584 28.1652C36.6584 27.9234 36.706 27.6839 36.7986 27.4605C36.8911 27.237 37.0268 27.034 37.1978 26.863C37.3688 26.692 37.5718 26.5563 37.7953 26.4638C38.0187 26.3712 38.2582 26.3236 38.5 26.3236C38.9885 26.3236 39.4569 26.5176 39.8023 26.863C40.1477 27.2084 40.3417 27.6768 40.3417 28.1652C40.3417 28.6537 40.1477 29.1221 39.8023 29.4675C39.4569 29.8129 38.9885 30.0069 38.5 30.0069Z" fill="#F4C2C2"/>
</svg>
