<svg width="62" height="62" viewBox="0 0 62 62" fill="none" xmlns="http://www.w3.org/2000/svg">
<path d="M0 15C0 6.71573 6.71573 0 15 0H47C55.2843 0 62 6.71573 62 15V47C62 55.2843 55.2843 62 47 62H15C6.71573 62 0 55.2843 0 47V15Z" fill="#FAEFEF"/>
<mask id="mask0_390_3635" style="mask-type:alpha" maskUnits="userSpaceOnUse" x="11" y="11" width="40" height="40">
<rect x="11" y="11" width="40" height="40" fill="#D9D9D9"/>
</mask>
<g mask="url(#mask0_390_3635)">
<path d="M31.0023 46.8337C28.8123 46.8337 26.7538 46.4181 24.8268 45.587C22.8999 44.7559 21.2238 43.628 19.7985 42.2032C18.3732 40.7785 17.2448 39.1031 16.4131 37.177C15.5817 35.2509 15.166 33.193 15.166 31.0032C15.166 28.8132 15.5817 26.7548 16.4131 24.8278C17.2442 22.9009 18.3723 21.2248 19.7973 19.7995C21.2223 18.3742 22.898 17.2457 24.8243 16.4141C26.7507 15.5827 28.8091 15.167 30.9993 15.167H44.2256C44.9323 15.167 45.5434 15.4249 46.0589 15.9407C46.5748 16.4563 46.8327 17.0674 46.8327 17.7741V31.0003C46.8327 33.1906 46.4171 35.2489 45.586 37.1753C44.7549 39.1017 43.627 40.7774 42.2023 42.2024C40.7775 43.6274 39.1021 44.7555 37.176 45.5866C35.2499 46.418 33.192 46.8337 31.0023 46.8337ZM30.9985 44.7395C34.8335 44.7395 38.0823 43.4085 40.7448 40.7466C43.4073 38.0846 44.7385 34.8359 44.7385 31.0003V17.7741C44.7385 17.6244 44.6905 17.5014 44.5944 17.4053C44.4982 17.3092 44.3753 17.2612 44.2256 17.2612H30.9993C27.1638 17.2612 23.915 18.592 21.2531 21.2537C18.5912 23.9156 17.2602 27.1642 17.2602 30.9995C17.2602 34.8345 18.591 38.0832 21.2527 40.7457C23.9146 43.4082 27.1632 44.7395 30.9985 44.7395ZM23.386 35.4107H34.0956V31.9362L39.2194 35.4107V26.3678L34.0956 29.8424V26.3678H23.386V35.4107Z" fill="#F4C2C2"/>
</g>
</svg>
