<svg width="22" height="22" viewBox="0 0 22 22" fill="none" xmlns="http://www.w3.org/2000/svg">
<mask id="mask0_390_3549" style="mask-type:alpha" maskUnits="userSpaceOnUse" x="0" y="0" width="22" height="22">
<rect width="22" height="22" fill="#D9D9D9"/>
</mask>
<g mask="url(#mask0_390_3549)">
<path d="M12.8687 18.4338V17.0129C14.1909 16.5923 15.2559 15.8284 16.0638 14.7213C16.8718 13.6142 17.2758 12.3662 17.2758 10.9771C17.2758 9.58808 16.8718 8.34004 16.0638 7.23301C15.2559 6.12583 14.1909 5.36194 12.8687 4.94134V3.52051C14.5751 3.97762 15.9654 4.89367 17.0396 6.26867C18.1136 7.64367 18.6506 9.21316 18.6506 10.9771C18.6506 12.7411 18.1136 14.3106 17.0396 15.6856C15.9654 17.0606 14.5751 17.9766 12.8687 18.4338ZM3.34961 13.2917V8.70838H6.75182L10.6827 4.77749V17.2226L6.75182 13.2917H3.34961ZM12.8687 14.3493V7.60495C13.4869 7.94106 13.9646 8.41436 14.3019 9.02486C14.6391 9.63536 14.8077 10.2938 14.8077 11C14.8077 11.6969 14.6376 12.3453 14.2974 12.9452C13.9571 13.5452 13.4809 14.0132 12.8687 14.3493ZM9.30771 8.11255L7.33688 10.0834H4.72438V11.9167H7.33688L9.30771 13.8876V8.11255Z" fill="white"/>
</g>
</svg>
