<svg width="60" height="60" viewBox="0 0 60 60" fill="none" xmlns="http://www.w3.org/2000/svg">
<mask id="mask0_921_715" style="mask-type:alpha" maskUnits="userSpaceOnUse" x="0" y="0" width="60" height="60">
<rect width="60" height="60" fill="#D9D9D9"/>
</mask>
<g mask="url(#mask0_921_715)">
<path d="M30 47.5C30 44.25 28.7292 41.3542 26.1875 38.8125C23.6458 36.2708 20.75 35 17.5 35C17.5 38.25 18.7708 41.1458 21.3125 43.6875C23.8542 46.2292 26.75 47.5 30 47.5ZM30 34.375C30.9583 34.375 31.7396 34.0729 32.3437 33.4688C32.9479 32.8646 33.25 32.0833 33.25 31.125V30.875C33.5 31.0833 33.7813 31.2396 34.0938 31.3438C34.4063 31.4479 34.75 31.5 35.125 31.5C36.0833 31.5 36.8854 31.1771 37.5313 30.5313C38.1771 29.8854 38.5 29.0833 38.5 28.125C38.5 27.4167 38.3333 26.8021 38 26.2813C37.6667 25.7604 37.2083 25.375 36.625 25.125C37.2083 24.875 37.6667 24.4896 38 23.9687C38.3333 23.4479 38.5 22.8333 38.5 22.125C38.5 21.1667 38.1771 20.3646 37.5313 19.7188C36.8854 19.0729 36.0833 18.75 35.125 18.75C34.75 18.75 34.4063 18.8021 34.0938 18.9063C33.7813 19.0104 33.5 19.1667 33.25 19.375V19C33.25 18.0417 32.9479 17.2604 32.3437 16.6562C31.7396 16.0521 30.9583 15.75 30 15.75C29.0417 15.75 28.2604 16.0521 27.6563 16.6562C27.0521 17.2604 26.75 18.0417 26.75 19V19.375C26.5 19.1667 26.2188 19.0104 25.9062 18.9063C25.5938 18.8021 25.25 18.75 24.875 18.75C23.9167 18.75 23.1146 19.0729 22.4688 19.7188C21.8229 20.3646 21.5 21.1667 21.5 22.125C21.5 22.8333 21.6667 23.4479 22 23.9687C22.3333 24.4896 22.7917 24.875 23.375 25.125C22.7917 25.375 22.3333 25.7604 22 26.2813C21.6667 26.8021 21.5 27.4167 21.5 28.125C21.5 29.0833 21.8229 29.8854 22.4688 30.5313C23.1146 31.1771 23.9167 31.5 24.875 31.5C25.25 31.5 25.5938 31.4479 25.9062 31.3438C26.2188 31.2396 26.5 31.0833 26.75 30.875V31.125C26.75 32.0833 27.0521 32.8646 27.6563 33.4688C28.2604 34.0729 29.0417 34.375 30 34.375ZM30 30.375C28.5417 30.375 27.3021 29.8646 26.2813 28.8438C25.2604 27.8229 24.75 26.5833 24.75 25.125C24.75 23.6667 25.2604 22.4271 26.2813 21.4063C27.3021 20.3854 28.5417 19.875 30 19.875C31.4583 19.875 32.6979 20.3854 33.7188 21.4063C34.7396 22.4271 35.25 23.6667 35.25 25.125C35.25 26.5833 34.7396 27.8229 33.7188 28.8438C32.6979 29.8646 31.4583 30.375 30 30.375ZM30 47.5C33.25 47.5 36.1458 46.2292 38.6875 43.6875C41.2292 41.1458 42.5 38.25 42.5 35C39.25 35 36.3542 36.2708 33.8125 38.8125C31.2708 41.3542 30 44.25 30 47.5ZM12 51.75C10.9167 51.75 10.0208 51.3958 9.3125 50.6875C8.60417 49.9792 8.25 49.0833 8.25 48V12C8.25 10.9167 8.60417 10.0208 9.3125 9.3125C10.0208 8.60417 10.9167 8.25 12 8.25H48C49.0833 8.25 49.9792 8.60417 50.6875 9.3125C51.3958 10.0208 51.75 10.9167 51.75 12V48C51.75 49.0833 51.3958 49.9792 50.6875 50.6875C49.9792 51.3958 49.0833 51.75 48 51.75H12ZM12 50H48C48.5 50 48.9583 49.7917 49.375 49.375C49.7917 48.9583 50 48.5 50 48V12C50 11.5 49.7917 11.0417 49.375 10.625C48.9583 10.2083 48.5 10 48 10H12C11.5 10 11.0417 10.2083 10.625 10.625C10.2083 11.0417 10 11.5 10 12V48C10 48.5 10.2083 48.9583 10.625 49.375C11.0417 49.7917 11.5 50 12 50Z" fill="#5A4A42"/>
</g>
</svg>
